<svg xmlns="http://www.w3.org/2000/svg">
  <symbol id="arrow-left" width="24" height="24" viewBox="0 0 24 24">
    <path fill="currentColor" d="m10 18l-6-6l6-6l1.4 1.45L7.85 11H20v2H7.85l3.55 3.55z"/>
  </symbol>

  <symbol id="arrow-right" width="24" height="24" viewBox="0 0 24 24">
    <path fill="currentColor" d="m14 18l-1.4-1.45L16.15 13H4v-2h12.15L12.6 7.45L14 6l6 6z"/>
  </symbol>

  <symbol id="profile-image-stub" width="40" height="40" viewBox="0 0 40 40">
    <path fill="currentColor" fill-rule="evenodd" clip-rule="evenodd" d="M36 2H4C2.89543 2 2 2.89543 2 4V25.2667L14.6547 22.3139C15.5486 22.1053 16.4635 22 17.3814 22H22.6186C23.5365 22 24.4514 22.1053 25.3453 22.3139L38 25.2667V4C38 2.89543 37.1046 2 36 2ZM4 0C1.79086 0 0 1.79086 0 4V36C0 38.2091 1.79086 40 4 40H36C38.2091 40 40 38.2091 40 36V4C40 1.79086 38.2091 0 36 0H4ZM10.9091 14.5455C12.9174 14.5455 14.5455 12.9174 14.5455 10.9091C14.5455 8.90079 12.9174 7.27273 10.9091 7.27273C8.90082 7.27273 7.27276 8.90079 7.27276 10.9091C7.27276 12.9174 8.90082 14.5455 10.9091 14.5455Z"/>
  </symbol>
</svg>
