<svg xmlns="http://www.w3.org/2000/svg">
  <symbol id="arrow-left" viewBox="0 0 24 24">
    <path fill="currentColor" d="m10 18l-6-6l6-6l1.4 1.45L7.85 11H20v2H7.85l3.55 3.55z"/>
  </symbol>

  <symbol id="arrow-right" viewBox="0 0 24 24">
    <path fill="currentColor" d="m14 18l-1.4-1.45L16.15 13H4v-2h12.15L12.6 7.45L14 6l6 6z"/>
  </symbol>

  <symbol id="keyboard-arrow-right" viewBox="0 0 24 24">
    <path fill="currentColor" d="M12.6 12L8 7.4L9.4 6l6 6l-6 6L8 16.6z"/>
  </symbol>

  <symbol id="profile-avatar-stub" viewBox="0 0 40 40">
    <path fill="currentColor" fill-rule="evenodd" clip-rule="evenodd" d="M36 2H4C2.89543 2 2 2.89543 2 4V25.2667L14.6547 22.3139C15.5486 22.1053 16.4635 22 17.3814 22H22.6186C23.5365 22 24.4514 22.1053 25.3453 22.3139L38 25.2667V4C38 2.89543 37.1046 2 36 2ZM4 0C1.79086 0 0 1.79086 0 4V36C0 38.2091 1.79086 40 4 40H36C38.2091 40 40 38.2091 40 36V4C40 1.79086 38.2091 0 36 0H4ZM10.9091 14.5455C12.9174 14.5455 14.5455 12.9174 14.5455 10.9091C14.5455 8.90079 12.9174 7.27273 10.9091 7.27273C8.90082 7.27273 7.27276 8.90079 7.27276 10.9091C7.27276 12.9174 8.90082 14.5455 10.9091 14.5455Z"/>
  </symbol>

  <symbol id="search" viewBox="0 0 24 24">
    <path fill="currentColor" d="M9.5 16q-2.725 0-4.612-1.888T3 9.5t1.888-4.612T9.5 3t4.613 1.888T16 9.5q0 1.1-.35 2.075T14.7 13.3l5.6 5.6q.275.275.275.7t-.275.7t-.7.275t-.7-.275l-5.6-5.6q-.75.6-1.725.95T9.5 16m0-2q1.875 0 3.188-1.312T14 9.5t-1.312-3.187T9.5 5T6.313 6.313T5 9.5t1.313 3.188T9.5 14"/>
  </symbol>

  <symbol id="check-double" viewBox="0 0 10 5">
    <line y1="-0.5" x2="3.765" y2="-0.5" transform="matrix(0.705933 0.708278 -0.705933 0.708278 0.700195 2.33313)" stroke="currentColor"/>
    <line y1="-0.5" x2="5.6475" y2="-0.5" transform="matrix(0.705933 -0.708278 0.705933 0.708278 3.35828 5.00006)" stroke="currentColor"/>
    <line y1="-0.5" x2="5.6475" y2="-0.5" transform="matrix(0.705933 -0.708278 0.705933 0.708278 6.01587 5.00006)" stroke="currentColor"/>
  </symbol>

  <symbol id="settings-dots" viewBox="0 0 24 24">
    <path fill="none" stroke="currentColor" stroke-linecap="round" stroke-linejoin="round" stroke-width="2" d="M12 5v.01M12 12v.01M12 19v.01M12 6a1 1 0 1 1 0-2a1 1 0 0 1 0 2m0 7a1 1 0 1 1 0-2a1 1 0 0 1 0 2m0 7a1 1 0 1 1 0-2a1 1 0 0 1 0 2"/>
  </symbol>

  <symbol id="attachment" viewBox="0 0 24 24">
    <path fill="none" stroke="currentColor" stroke-linecap="round" stroke-linejoin="round" stroke-width="1.5" d="M12.948 7.308L7.42 12.835a2.607 2.607 0 1 0 3.689 3.688l5.982-5.982a4.55 4.55 0 0 0 0-6.452a4.55 4.55 0 0 0-6.4.065l-6.034 5.918a6.517 6.517 0 0 0 9.215 9.214l7.377-7.312"/>
  </symbol>
</svg>
